<svg width="10" height="10" viewBox="0 0 10 10" fill="none" xmlns="http://www.w3.org/2000/svg">
<g clip-path="url(#clip0_175_4359)">
<path d="M4.00734 4.38703L5.3625 6.09297C5.3625 6.09297 5.10313 7.69234 4.16609 8.43859C3.22906 9.18516 0 8.97172 0 8.97172C0 8.97172 0.059375 8.61016 0.171875 8.10563L1.65031 6.35297C1.71234 6.27953 1.63672 6.17141 1.54641 6.20453L0.602656 6.54969C0.828281 5.89875 1.11391 5.29906 1.45578 5.02672C2.39281 4.28047 4.00734 4.38703 4.00734 4.38703ZM9.94578 1.48484L9.63547 1.09422C9.54969 0.986407 9.39297 0.968438 9.28531 1.05422L5.65281 3.83234L5.11938 3.16094C5.03984 3.06078 4.88281 3.07953 4.82891 3.19547L4.43313 4.04781L5.78828 5.75375L6.70703 5.55922C6.83203 5.53281 6.88547 5.38422 6.80609 5.28422L6.27344 4.61359L9.90594 1.83547C10.0136 1.74984 10.0316 1.59281 9.94578 1.48484Z" fill="#2196F3"/>
</g>
<defs>
<clipPath id="clip0_175_4359">
<rect width="10" height="10" fill="white"/>
</clipPath>
</defs>
</svg>
