<svg width="30" height="30" viewBox="0 0 30 30" fill="none" xmlns="http://www.w3.org/2000/svg">
<path fill-rule="evenodd" clip-rule="evenodd" d="M6.7875 9.7875C4.73906 11.8313 4.73906 15.1594 6.7875 17.2078C7.28438 17.7047 7.86094 18.0797 8.475 18.3328C8.025 18.7922 7.65469 19.3219 7.36875 19.9031L3.80156 21.0891C3.24375 21.2719 2.71406 20.7469 2.90156 20.1891L4.275 16.0734L0.39375 14.1328C-0.13125 13.8703 -0.13125 13.125 0.39375 12.8625L4.275 10.9172L2.90156 6.80156C2.71875 6.24844 3.24844 5.71875 3.80156 5.90156L7.92188 7.275L9.8625 3.39375C10.125 2.86875 10.875 2.86875 11.1328 3.39375L13.0781 7.275L17.1938 5.90156C17.7516 5.71875 18.2812 6.24375 18.0938 6.80156L16.6969 10.9688C16.2 11.0391 15.7172 11.1469 15.2578 11.3203C15.0047 10.7672 14.6672 10.2422 14.2125 9.7875C12.1641 7.73906 8.83594 7.73906 6.7875 9.7875ZM9.74531 17.3531C7.93594 17.0016 6.5625 15.4078 6.5625 13.4953C6.5625 11.325 8.32969 9.5625 10.5 9.5625C12.0938 9.5625 13.4672 10.5188 14.0859 11.8828C12.3797 12.9375 11.1797 14.7281 10.9266 16.8047C10.5094 16.9406 10.1203 17.1328 9.74531 17.3531Z" fill="#FFDD00"/>
<path d="M26.9625 18.2672C26.9719 18.1781 27 18.0938 27 18.0047C27 16.35 25.6547 15.0047 24 15.0047C23.4094 15.0047 22.8656 15.1828 22.4016 15.4734C21.5766 13.6547 19.7531 12.3797 17.625 12.3797C14.7281 12.3797 12.375 14.7281 12.375 17.6297C12.375 17.7703 12.4078 17.9016 12.4172 18.0375C10.0922 18.2109 8.25 20.1328 8.25 22.5047C8.25 24.9891 10.2656 27.0047 12.75 27.0047H25.5C27.9844 27.0047 30 24.9891 30 22.5047C30 20.5312 28.725 18.8766 26.9625 18.2672Z" fill="black"/>
<path d="M26.9625 18.2672C26.9719 18.1781 27 18.0938 27 18.0047C27 16.35 25.6547 15.0047 24 15.0047C23.4094 15.0047 22.8656 15.1828 22.4016 15.4734C21.5766 13.6547 19.7531 12.3797 17.625 12.3797C14.7281 12.3797 12.375 14.7281 12.375 17.6297C12.375 17.7703 12.4078 17.9016 12.4172 18.0375C10.0922 18.2109 8.25 20.1328 8.25 22.5047C8.25 24.9891 10.2656 27.0047 12.75 27.0047H25.5C27.9844 27.0047 30 24.9891 30 22.5047C30 20.5312 28.725 18.8766 26.9625 18.2672Z" fill="#F5F5F5"/>
</svg>
