<svg width="47" height="51" viewBox="0 0 47 51" fill="none" xmlns="http://www.w3.org/2000/svg">
<path d="M26.3763 19.271V37.8359L26.3763 49.8805C26.3763 50.3991 26.0707 50.6613 25.6264 50.3937L4.03673 37.9641C-0.0731741 35.4959 -0.934184 29.9031 2.24307 26.3131L25.2932 1.05732C25.9168 0.409976 26.3763 0.22426 26.3763 1.05736V19.271Z" fill="#007AFF" fill-opacity="0.5"/>
<path d="M32.4164 2.14241L31.9069 11.4545C31.6522 12.2188 30.8879 12.2188 30.3784 11.7093L28.5951 9.92601C27.2896 8.62063 27.5573 7.66344 28.3426 6.67338C30.0942 4.46517 31.9069 2.28332 31.9069 2.28332C32.1538 1.95756 32.4164 1.77381 32.4164 2.14241Z" fill="#007AFF"/>
<path d="M26.4596 8.05598C27.626 12.3884 30.2921 12.555 36.6241 18.7204C38.4532 20.5014 42.6228 23.7194 44.6224 25.7189C51.6209 32.7175 38.7903 39.716 35.791 32.0509C27.9593 32.0509 18.128 32.0509 18.128 32.0509C6.6304 29.7181 8.62662 18.448 11.796 15.8877L25.3791 0.955023C26.0012 0.493347 26.4596 0.360898 26.4596 0.955053V8.05598Z" fill="#007AFF" fill-opacity="0.5"/>
</svg>
