<svg width="91" height="99" viewBox="0 0 91 99" fill="none" xmlns="http://www.w3.org/2000/svg">
<path d="M51.1452 36.841V73.2776L51.1452 96.9171C51.1452 97.935 50.5454 98.4496 49.6735 97.9243L7.30028 73.5293C-0.766051 68.6851 -2.45592 57.7082 3.77994 50.6622L49.0194 1.09383C50.2433 -0.176687 51.1452 -0.541183 51.1452 1.09391V36.841Z" fill="#0E8E46" fill-opacity="0.5"/>
<path d="M62.9999 3.22351L61.9999 21.5001C61.5 23.0001 60 23.0001 59 22.0001L55.4999 18.5001C52.9378 15.938 53.4632 14.0594 55.0045 12.1163C58.4421 7.78228 61.9999 3.50007 61.9999 3.50007C62.4846 2.8607 62.9999 2.50007 62.9999 3.22351Z" fill="#4BAA74"/>
<path d="M51.3087 14.8298C53.598 23.3328 58.8306 23.6599 71.2582 35.7604C74.8481 39.2558 83.0317 45.5716 86.9562 49.4961C100.692 63.2318 75.5098 76.9676 69.6231 61.9237C54.2522 61.9237 34.9567 61.9237 34.9567 61.9237C12.3908 57.3451 16.3087 35.2258 22.5291 30.2007L49.1882 0.893006C50.4091 -0.0131062 51.3087 -0.273059 51.3087 0.893066V14.8298Z" fill="#0E8E46" fill-opacity="0.5"/>
</svg>
