<svg width="17" height="17" viewBox="0 0 17 17" fill="none" xmlns="http://www.w3.org/2000/svg">
<rect x="1" y="1" width="15" height="15" rx="7.5" fill="white"/>
<rect x="1" y="1" width="15" height="15" rx="7.5" stroke="#87C6A2" stroke-width="2"/>
<path d="M8.49989 5.86816C8.70224 5.86816 8.86686 6.03208 8.86708 6.23438V8.13184H10.7616C10.965 8.132 11.1297 8.29658 11.1298 8.5C11.1298 8.70352 10.9651 8.86898 10.7616 8.86914H8.86708V10.7656C8.86708 10.9681 8.70237 11.1318 8.49989 11.1318C8.29747 11.1318 8.13368 10.9681 8.13368 10.7656V8.86914H6.23915C6.03553 8.86914 5.87001 8.70362 5.87001 8.5C5.87013 8.29648 6.03561 8.13184 6.23915 8.13184H8.13368V6.23438C8.1339 6.03212 8.2976 5.86822 8.49989 5.86816Z" fill="#87C6A2" stroke="#87C6A2" stroke-width="0.25"/>
</svg>
