<svg width="22" height="26" viewBox="0 0 22 26" fill="none" xmlns="http://www.w3.org/2000/svg">
<path fill-rule="evenodd" clip-rule="evenodd" d="M21.1844 25.4995L21.2283 25.4995C21.2135 25.5002 21.1989 25.5001 21.1844 25.4995ZM0.608479 25.4984L0.688383 25.4984C0.662205 25.5005 0.63551 25.5006 0.608479 25.4984Z" fill="black"/>
<path fill-rule="evenodd" clip-rule="evenodd" d="M13.146 13.6728C15.7966 12.7541 17.6996 10.2355 17.6996 7.27228C17.6996 3.53205 14.6676 0.5 10.9273 0.5C7.18712 0.5 4.15507 3.53205 4.15507 7.27228C4.15507 10.2709 6.10393 12.8143 8.80415 13.7051C7.71641 13.8755 6.43631 14.2356 5.19503 14.9919C2.78339 16.4611 0.612899 19.3633 0.159397 24.9703C0.137572 25.2401 0.338632 25.4766 0.608479 25.4984L0.688383 25.4984C0.923542 25.4792 1.11696 25.2921 1.1366 25.0493C1.56995 19.6914 3.61198 17.1043 5.70511 15.8291C7.83093 14.534 10.1064 14.5286 11.1255 14.5357L11.1488 14.5358C12.1878 14.5429 14.4403 14.5582 16.4986 15.8376C18.535 17.1035 20.4806 19.6747 20.717 25.0314C20.7283 25.2871 20.9335 25.4883 21.1844 25.4995L21.2283 25.4995C21.4988 25.4876 21.7084 25.2586 21.6964 24.9882C21.449 19.3806 19.3837 16.4767 17.0161 15.005C15.6847 14.1773 14.2892 13.8245 13.146 13.6728ZM16.7192 7.27228C16.7192 10.471 14.1261 13.0642 10.9273 13.0642C7.72858 13.0642 5.13546 10.471 5.13546 7.27228C5.13546 4.07351 7.72858 1.48039 10.9273 1.48039C14.1261 1.48039 16.7192 4.07351 16.7192 7.27228Z" fill="black"/>
</svg>
