<svg width="22" height="25" viewBox="0 0 22 25" fill="none" xmlns="http://www.w3.org/2000/svg">
<path d="M10.9274 12.0642C14.1262 12.0642 16.7193 9.47105 16.7193 6.27228C16.7193 3.07351 14.1262 0.480391 10.9274 0.480391C7.72861 0.480391 5.13549 3.07351 5.13549 6.27228C5.13549 9.47105 7.72861 12.0642 10.9274 12.0642Z" fill="black"/>
<path d="M1.13663 24.0493C1.11699 24.2921 0.923572 24.4792 0.688414 24.4984L21.1844 24.4995C20.9335 24.4883 20.7283 24.2871 20.717 24.0314C20.4807 18.6747 18.5351 16.1035 16.4986 14.8376C14.4404 13.5582 12.1879 13.5429 11.1488 13.5358L11.1256 13.5357C10.1064 13.5286 7.83096 13.534 5.70514 14.8291C3.61201 16.1043 1.56998 18.6914 1.13663 24.0493Z" fill="black"/>
<path fill-rule="evenodd" clip-rule="evenodd" d="M21.1844 24.4995L21.2283 24.4995C21.2136 24.5002 21.1989 24.5001 21.1844 24.4995ZM0.608509 24.4984L0.688414 24.4984C0.662236 24.5005 0.63554 24.5006 0.608509 24.4984Z" fill="black"/>
</svg>
