<svg width="24" height="22" viewBox="0 0 24 22" fill="none" xmlns="http://www.w3.org/2000/svg">
<path d="M0.717613 17.9545C0.717613 19.9629 2.50847 21.5909 4.71761 21.5909H19.7176C21.9268 21.5909 23.7176 19.9629 23.7176 17.9545V8.86364C23.7176 6.85533 21.9268 5.22727 19.7176 5.22727H4.71761C2.50847 5.22727 0.717613 6.85533 0.717613 8.86364V17.9545Z" fill="black"/>
<path d="M4.71761 0.681818C2.50847 0.681818 0.717613 2.30987 0.717613 4.31818V6.13592C1.62984 5.03213 3.08201 4.31818 4.71761 4.31818H19.7176C21.3532 4.31818 22.8054 5.03213 23.7176 6.13592V4.31818C23.7176 2.30987 21.9268 0.681818 19.7176 0.681818H18.2176C18.2176 1.13369 17.8513 1.5 17.3994 1.5H17.0358C16.5839 1.5 16.2176 1.13369 16.2176 0.681818H8.21761C8.21761 1.13369 7.8513 1.5 7.39943 1.5H7.0358C6.58393 1.5 6.21761 1.13369 6.21761 0.681818H4.71761Z" fill="black"/>
</svg>
