<svg width="25" height="24" viewBox="0 0 25 24" fill="none" xmlns="http://www.w3.org/2000/svg">
<path d="M1.37003 11.7619C1.37003 10.7188 1.69435 9.39443 2.70001 8.511C4.1993 7.19395 6.53145 5.16577 8.62985 3.46814C9.68003 2.61853 10.6642 1.85779 11.4527 1.31156C11.8478 1.03783 12.1842 0.824617 12.4497 0.681849C12.5826 0.610407 12.6891 0.561299 12.7703 0.531136C12.8312 0.508529 12.8629 0.502285 12.8717 0.500594C12.8816 0.502168 12.9134 0.507905 12.9729 0.528775C13.0504 0.55592 13.1514 0.600252 13.2772 0.665213C13.5287 0.795147 13.8467 0.990476 14.2215 1.24426C14.9695 1.75074 15.9058 2.4639 16.9241 3.28175C18.9585 4.91578 21.2897 6.94305 23.0364 8.50778C24.123 9.48114 24.37 10.7142 24.37 11.7619V20.1905C24.37 21.1881 24.1666 22.0102 23.7215 22.5746C23.2939 23.1169 22.5803 23.5 21.37 23.5H18.15C17.2648 23.5 16.7301 23.2724 16.4053 22.9142C16.0713 22.5457 15.87 21.9423 15.87 21C15.87 20.5054 15.89 19.9718 15.9104 19.4232C15.9154 19.2914 15.9203 19.1587 15.925 19.0255C15.9491 18.3461 15.9669 17.6553 15.937 17.0384C15.9078 16.4327 15.8311 15.8417 15.6354 15.388C15.5354 15.156 15.3927 14.932 15.183 14.7645C14.9649 14.5904 14.7021 14.5 14.4108 14.5H14.4108H14.4107H14.4107H14.4106H14.4104H14.4103H14.4102H14.41H14.4098H14.4095H14.4093H14.409H14.4088H14.4084H14.4081H14.4078H14.4074H14.407H14.4066H14.4062H14.4057H14.4053H14.4048H14.4043H14.4037H14.4032H14.4026H14.402H14.4014H14.4008H14.4001H14.3995H14.3988H14.3981H14.3974H14.3966H14.3958H14.3951H14.3942H14.3934H14.3926H14.3917H14.3908H14.3899H14.389H14.3881H14.3871H14.3861H14.3852H14.3841H14.3831H14.3821H14.381H14.3799H14.3788H14.3777H14.3765H14.3754H14.3742H14.373H14.3718H14.3706H14.3693H14.368H14.3668H14.3655H14.3641H14.3628H14.3614H14.3601H14.3587H14.3573H14.3558H14.3544H14.3529H14.3515H14.35H14.3485H14.3469H14.3454H14.3438H14.3422H14.3406H14.339H14.3374H14.3358H14.3341H14.3324H14.3307H14.329H14.3273H14.3255H14.3238H14.322H14.3202H14.3184H14.3166H14.3147H14.3129H14.311H14.3091H14.3072H14.3053H14.3034H14.3014H14.2994H14.2975H14.2955H14.2935H14.2914H14.2894H14.2873H14.2853H14.2832H14.2811H14.279H14.2768H14.2747H14.2725H14.2703H14.2681H14.2659H14.2637H14.2615H14.2592H14.257H14.2547H14.2524H14.2501H14.2478H14.2455H14.2431H14.2407H14.2384H14.236H14.2336H14.2312H14.2287H14.2263H14.2238H14.2214H14.2189H14.2164H14.2139H14.2113H14.2088H14.2063H14.2037H14.2011H14.1985H14.1959H14.1933H14.1907H14.1881H14.1854H14.1827H14.1801H14.1774H14.1747H14.172H14.1692H14.1665H14.1637H14.161H14.1582H14.1554H14.1526H14.1498H14.147H14.1441H14.1413H14.1384H14.1356H14.1327H14.1298H14.1269H14.124H14.121H14.1181H14.1151H14.1122H14.1092H14.1062H14.1032H14.1002H14.0972H14.0942H14.0911H14.0881H14.085H14.082H14.0789H14.0758H14.0727H14.0696H14.0665H14.0633H14.0602H14.057H14.0539H14.0507H14.0475H14.0443H14.0411H14.0379H14.0347H14.0315H14.0282H14.025H14.0217H14.0184H14.0152H14.0119H14.0086H14.0053H14.0019H13.9986H13.9953H13.9919H13.9886H13.9852H13.9819H13.9785H13.9751H13.9717H13.9683H13.9649H13.9615H13.958H13.9546H13.9511H13.9477H13.9442H13.9408H13.9373H13.9338H13.9303H13.9268H13.9233H13.9198H13.9162H13.9127H13.9092H13.9056H13.902H13.8985H13.8949H13.8913H13.8877H13.8842H13.8806H13.8769H13.8733H13.8697H13.8661H13.8624H13.8588H13.8551H13.8515H13.8478H13.8442H13.8405H13.8368H13.8331H13.8294H13.8257H13.822H13.8183H13.8146H13.8108H13.8071H13.8034H13.7996H13.7959H13.7921H13.7884H13.7846H13.7808H13.777H13.7733H13.7695H13.7657H13.7619H13.7581H13.7543H13.7504H13.7466H13.7428H13.739H13.7351H13.7313H13.7274H13.7236H13.7197H13.7159H13.712H13.7081H13.7043H13.7004H13.6965H13.6926H13.6887H13.6848H13.6809H13.677H13.6731H13.6692H13.6653H13.6614H13.6574H13.6535H13.6496H13.6457H13.6417H13.6378H13.6338H13.6299H13.6259H13.622H13.618H13.6141H13.6101H13.6061H13.6022H13.5982H13.5942H13.5902H13.5862H13.5823H13.5783H13.5743H13.5703H13.5663H13.5623H13.5583H13.5543H13.5503H13.5463H13.5423H13.5383H13.5343H13.5302H13.5262H13.5222H13.5182H13.5142H13.5101H13.5061H13.5021H13.4981H13.494H13.49H13.486H13.4819H13.4779H13.4739H13.4698H13.4658H13.4617H13.4577H13.4537H13.4496H13.4456H13.4415H13.4375H13.4334H13.4294H13.4253H13.4213H13.4172H13.4132H13.4092H13.4051H13.4011H13.397H13.393H13.3889H13.3849H13.3808H13.3768H13.3727H13.3687H13.3646H13.3606H13.3565H13.3525H13.3484H13.3444H13.3404H13.3363H13.3323H13.3282H13.3242H13.3202H13.3161H13.3121H13.308H13.304H13.3H13.2959H13.2919H13.2879H13.2839H13.2798H13.2758H13.2718H13.2678H13.2637H13.2597H13.2557H13.2517H13.2477H13.2437H13.2397H13.2357H13.2317H13.2277H13.2237H13.2197H13.2157H13.2117H13.2077H13.2037H13.1997H13.1957H13.1918H13.1878H13.1838H13.1799H13.1759H13.1719H13.168H13.164H13.1601H13.1561H13.1522H13.1482H13.1443H13.1403H13.1364H13.1325H13.1286H13.1246H13.1207H13.1168H13.1129H13.109H13.1051H13.1012H13.0973H13.0934H13.0895H13.0856H13.0818H13.0779H13.074H13.0702H13.0663H13.0625H13.0586H13.0548H13.0509H13.0471H13.0433H13.0395H13.0356H13.0318H13.028H13.0242H13.0204H13.0166H13.0128H13.0091H13.0053H13.0015H12.9977H12.994H12.9902H12.9865H12.9827H12.979H12.9753H12.9716H12.9678H12.9641H12.9604H12.9567H12.953H12.9494H12.9457H12.942H12.9383H12.9347H12.931H12.9274H12.9237H12.9201H12.9165H12.9129H12.9093H12.9057H12.9021H12.8985H12.8949H12.8913H12.8877H12.8842H12.8806H12.8771H12.8736H12.87H12.8665H12.863H12.8594H12.8559H12.8523H12.8487H12.8452H12.8416H12.838H12.8344H12.8308H12.8272H12.8236H12.8199H12.8163H12.8127H12.809H12.8054H12.8017H12.798H12.7944H12.7907H12.787H12.7833H12.7796H12.7759H12.7722H12.7685H12.7648H12.761H12.7573H12.7536H12.7498H12.7461H12.7423H12.7385H12.7348H12.731H12.7272H12.7234H12.7196H12.7158H12.712H12.7082H12.7044H12.7006H12.6968H12.6929H12.6891H12.6853H12.6814H12.6776H12.6737H12.6699H12.666H12.6621H12.6583H12.6544H12.6505H12.6466H12.6427H12.6389H12.635H12.6311H12.6272H12.6232H12.6193H12.6154H12.6115H12.6076H12.6036H12.5997H12.5958H12.5918H12.5879H12.5839H12.58H12.576H12.5721H12.5681H12.5642H12.5602H12.5562H12.5523H12.5483H12.5443H12.5403H12.5363H12.5324H12.5284H12.5244H12.5204H12.5164H12.5124H12.5084H12.5044H12.5004H12.4964H12.4924H12.4884H12.4843H12.4803H12.4763H12.4723H12.4683H12.4642H12.4602H12.4562H12.4522H12.4481H12.4441H12.4401H12.436H12.432H12.428H12.4239H12.4199H12.4159H12.4118H12.4078H12.4037H12.3997H12.3956H12.3916H12.3876H12.3835H12.3795H12.3754H12.3714H12.3673H12.3633H12.3592H12.3552H12.3511H12.3471H12.343H12.339H12.3349H12.3309H12.3268H12.3228H12.3188H12.3147H12.3107H12.3066H12.3026H12.2985H12.2945H12.2904H12.2864H12.2824H12.2783H12.2743H12.2702H12.2662H12.2622H12.2581H12.2541H12.2501H12.246H12.242H12.238H12.2339H12.2299H12.2259H12.2219H12.2178H12.2138H12.2098H12.2058H12.2018H12.1978H12.1938H12.1898H12.1858H12.1818H12.1778H12.1738H12.1698H12.1658H12.1618H12.1578H12.1538H12.1498H12.1458H12.1419H12.1379H12.1339H12.13H12.126H12.122H12.1181H12.1141H12.1102H12.1062H12.1023H12.0983H12.0944H12.0905H12.0865H12.0826H12.0787H12.0748H12.0708H12.0669H12.063H12.0591H12.0552H12.0513H12.0474H12.0436H12.0397H12.0358H12.0319H12.028H12.0242H12.0203H12.0165H12.0126H12.0088H12.0049H12.0011H11.9973H11.9934H11.9896H11.9858H11.982H11.9782H11.9744H11.9706H11.9668H11.963H11.9592H11.9555H11.9517H11.9479H11.9442H11.9404H11.9367H11.9329H11.9292H11.9255H11.9218H11.918H11.9143H11.9106H11.9069H11.9033H11.8996H11.8959H11.8922H11.8886H11.8849H11.8813H11.8776H11.874H11.8703H11.8667H11.8631H11.8595H11.8559H11.8523H11.8487H11.8451H11.8416H11.838H11.8344H11.8309H11.8274H11.8238H11.8203H11.8168H11.8133H11.8098H11.8063H11.8028H11.7993H11.7958H11.7924H11.7889H11.7855H11.782H11.7786H11.7752H11.7718H11.7684H11.765H11.7616H11.7582H11.7548H11.7515H11.7481H11.7448H11.7414H11.7381H11.7348H11.7315H11.7282H11.7249H11.7216H11.7183H11.7151H11.7118H11.7086H11.7054H11.7021H11.6989H11.6957H11.6925H11.6893H11.6862H11.683H11.6799H11.6767H11.6736H11.6705H11.6674H11.6643H11.6612H11.6581H11.655H11.652H11.6489H11.6459H11.6428H11.6398H11.6368H11.6338H11.6308H11.6279H11.6249H11.622H11.619H11.6161H11.6132H11.6103H11.6074H11.6045H11.6016H11.5988H11.5959H11.5931H11.5903H11.5874H11.5846H11.5819H11.5791H11.5763H11.5736H11.5708H11.5681H11.5654H11.5627H11.56H11.5573H11.5547H11.552H11.5494H11.5467H11.5441H11.5415H11.5389H11.5364H11.5338H11.5312H11.5287H11.5262H11.5237H11.5212H11.5187H11.5162H11.5138H11.5113H11.5089H11.5065H11.5041H11.5017H11.4993H11.4969H11.4946H11.4923H11.4899H11.4876H11.4854H11.4831H11.4808H11.4786H11.4763H11.4741H11.4719H11.4697H11.4675H11.4654H11.4632H11.4611H11.459H11.4569H11.4548H11.4527H11.4507H11.4486H11.4466H11.4446H11.4426H11.4406H11.4386H11.4367H11.4348H11.4328H11.4309H11.429H11.4272H11.4253H11.4235H11.4217H11.4198H11.4181H11.4163H11.4145H11.4128H11.411H11.4093H11.4076H11.406H11.4043H11.4027H11.401H11.3994H11.3978H11.3962H11.3947H11.3931H11.3916H11.3901H11.3886H11.3871H11.3857H11.3842H11.3828H11.3814H11.38H11.3786H11.3773H11.3759H11.3746H11.3733H11.372H11.3707H11.3695H11.3683H11.367H11.3659H11.3647H11.3635H11.3624H11.3612H11.3601H11.3591H11.358H11.3569H11.3559H11.3549H11.3539H11.3529H11.352H11.351H11.3501H11.3492H11.3483H11.3475H11.3466H11.3458H11.345H11.3442H11.3434H11.3427H11.342H11.3413H11.3406H11.3399H11.3393H11.3386H11.338H11.3374H11.3369H11.3363H11.3358H11.3353H11.3348H11.3343H11.3339H11.3334H11.333H11.3326H11.3323H11.3319H11.3316H11.3313H11.331H11.3307H11.3305H11.3303H11.3301H11.3299H11.3297H11.3296H11.3295H11.3294H11.3293H11.3293H11.3292C10.6618 14.5 10.2884 14.9857 10.0979 15.4747C9.90868 15.9602 9.83218 16.5904 9.80295 17.2271C9.77323 17.8742 9.79091 18.5794 9.81504 19.2371C9.82106 19.4013 9.82745 19.5618 9.83365 19.7179C9.85268 20.1963 9.87003 20.6322 9.87003 21C9.87003 21.9423 9.66875 22.5457 9.33471 22.9142C9.00991 23.2724 8.47525 23.5 7.59003 23.5H4.37003C3.15977 23.5 2.44613 23.1169 2.01853 22.5746C1.57342 22.0102 1.37003 21.1881 1.37003 20.1905V11.7619Z" stroke="black"/>
</svg>
