<svg width="26" height="26" viewBox="0 0 26 26" fill="none" xmlns="http://www.w3.org/2000/svg">
<path fill-rule="evenodd" clip-rule="evenodd" d="M20.7176 3.68182H19.2176H17.2176H9.21761H7.21761H5.71761C3.50847 3.68182 1.71761 5.30987 1.71761 7.31818V9.13592V20.9545C1.71761 22.9629 3.50847 24.5909 5.71761 24.5909H20.7176C22.9268 24.5909 24.7176 22.9629 24.7176 20.9545V9.13592V7.31818C24.7176 5.30987 22.9268 3.68182 20.7176 3.68182ZM5.71761 2.77273C2.95619 2.77273 0.717613 4.8078 0.717613 7.31818V20.9545C0.717613 23.4649 2.95619 25.5 5.71761 25.5H20.7176C23.479 25.5 25.7176 23.4649 25.7176 20.9545V7.31818C25.7176 4.8078 23.479 2.77273 20.7176 2.77273H19.2176H17.2176H9.21761H7.21761H5.71761Z" fill="black"/>
<path fill-rule="evenodd" clip-rule="evenodd" d="M1.71761 20.9545V11.8636V9.13592C1.0897 9.89569 0.717613 10.8402 0.717613 11.8636V20.9545C0.717613 23.4649 2.95619 25.5 5.71761 25.5H20.7176C23.479 25.5 25.7176 23.4649 25.7176 20.9545V11.8636C25.7176 10.8402 25.3455 9.89569 24.7176 9.13592V11.8636V20.9545C24.7176 22.9629 22.9268 24.5909 20.7176 24.5909H5.71761C3.50847 24.5909 1.71761 22.9629 1.71761 20.9545Z" fill="black"/>
<path d="M19.2176 2.77273V1.5C19.2176 0.947715 18.7699 0.5 18.2176 0.5C17.6653 0.5 17.2176 0.947715 17.2176 1.5V2.77273H19.2176Z" fill="black"/>
<path d="M8.21761 0.5C7.66533 0.5 7.21761 0.947715 7.21761 1.5V2.77273H9.21761V1.5C9.21761 0.947715 8.7699 0.5 8.21761 0.5Z" fill="black"/>
<path d="M5.71761 8.22727H20.7176C22.9268 8.22727 24.7176 9.85533 24.7176 11.8636V9.13592C23.8054 8.03213 22.3532 7.31818 20.7176 7.31818H5.71761C4.08201 7.31818 2.62984 8.03213 1.71761 9.13592V11.8636C1.71761 9.85533 3.50847 8.22727 5.71761 8.22727Z" fill="black"/>
<path d="M9.21761 3.68182H7.21761C7.21761 4.13369 7.58393 4.5 8.0358 4.5H8.39943C8.8513 4.5 9.21761 4.13369 9.21761 3.68182Z" fill="black"/>
<path d="M19.2176 3.68182H17.2176C17.2176 4.13369 17.5839 4.5 18.0358 4.5H18.3994C18.8513 4.5 19.2176 4.13369 19.2176 3.68182Z" fill="black"/>
</svg>
