<svg width="25" height="26" viewBox="0 0 25 26" fill="none" xmlns="http://www.w3.org/2000/svg">
<path fill-rule="evenodd" clip-rule="evenodd" d="M5.96632 17.2471C6.02267 17.3378 6.05121 17.446 6.04319 17.5582L5.76267 21.4856C5.65876 22.9404 7.43078 23.7287 8.44171 22.6775L11.1383 19.8734C11.3426 19.661 11.6825 19.6608 11.8871 19.8729L16.8523 25.0221C17.7024 25.9036 19.1903 25.506 19.4873 24.3179L24.9564 2.44171C25.2853 1.12595 23.8937 0.0466174 22.7011 0.692575L0.83914 12.5345C-0.346862 13.1769 -0.212884 14.9202 1.05735 15.3738L5.69959 17.0318C5.76699 17.0558 5.82694 17.0928 5.87719 17.1392L5.96632 17.2471ZM23.948 2.1896C24.0576 1.75102 23.5937 1.39124 23.1962 1.60656L1.33421 13.4485C0.938886 13.6626 0.983537 14.2437 1.40695 14.3949L6.0492 16.0529C6.18103 16.0999 6.30336 16.1634 6.41431 16.2405C6.77715 16.4149 6.93571 16.5705 7.02228 17.0865C7.07267 17.26 7.09344 17.4442 7.08001 17.6323L6.79948 21.5597C6.7813 21.8141 17.6404 9.44 17.8396 9.51562C18.02 9.58413 7.53233 22.1235 7.69249 21.957L10.3649 19.1781C10.8492 18.7599 11.1797 18.6277 11.9712 18.743C12.2155 18.8178 12.4449 18.9539 12.6353 19.1514L17.6006 24.3006C17.8839 24.5944 18.3799 24.4619 18.4789 24.0658L23.948 2.1896Z" fill="black"/>
</svg>
