<svg width="23" height="24" viewBox="0 0 23 24" fill="none" xmlns="http://www.w3.org/2000/svg">
<path d="M22.1962 0.606559C22.5937 0.39124 23.0576 0.751019 22.948 1.1896L17.4789 23.0658C17.3799 23.4619 16.8839 23.5944 16.6006 23.3006L11.6353 18.1514C11.4449 17.9539 11.2155 17.8178 10.9712 17.743C10.1797 17.6277 9.84917 17.7599 9.36491 18.1781L6.69249 20.957C6.53233 21.1235 17.02 8.58413 16.8396 8.51562C16.6404 8.44 5.7813 20.8141 5.79948 20.5597L6.08001 16.6323C6.09344 16.4442 6.07267 16.26 6.02228 16.0865C5.93571 15.5705 5.77715 15.4149 5.41431 15.2405C5.30336 15.1634 5.18103 15.0999 5.0492 15.0529L0.406952 13.3949C-0.0164627 13.2437 -0.0611144 12.6626 0.334215 12.4485L22.1962 0.606559Z" fill="black"/>
</svg>
