<svg width="24" height="26" viewBox="0 0 24 26" fill="none" xmlns="http://www.w3.org/2000/svg">
<path d="M12.9119 19.1679L12.9119 24.7979L2.49575 18.8011C0.713234 17.7275 0.3398 15.3005 1.7173 13.7407L12.9119 1.47484V9.88549V19.1679Z" fill="black" stroke="black"/>
<path d="M16.1772 1.39099L16.4172 1.59038L16.4172 1.59038L16.1772 1.39099ZM14.7868 3.89674C15.165 3.4199 15.5493 2.94511 15.8634 2.56017L15.6929 5.67678L14.8749 4.85878L14.8749 4.85877C14.5993 4.58325 14.5659 4.42087 14.5662 4.34187C14.5665 4.24892 14.6127 4.11629 14.7868 3.89674Z" fill="black" stroke="black"/>
<path d="M12.9536 4.27753V4.34366L12.9708 4.40752C13.2975 5.62108 13.8538 6.26464 14.7036 6.98203C14.9337 7.17626 15.1823 7.37418 15.4545 7.59088C16.1711 8.16135 17.0511 8.86196 18.187 9.96798C18.6278 10.3971 19.3231 10.9806 20.0231 11.568C20.076 11.6124 20.129 11.6569 20.182 11.7013C20.9478 12.3443 21.7002 12.9813 22.1815 13.4626C22.9679 14.249 23.1385 14.967 23.0396 15.5329C22.9372 16.1197 22.5258 16.6549 21.9397 17.0156C21.3536 17.3763 20.649 17.5262 20.035 17.3996C19.4446 17.2778 18.8987 16.8948 18.5849 16.0928L18.4606 15.775H18.1193H18.0963H18.0734H18.0504H18.0273H18.0043H17.9812H17.9581H17.935H17.9119H17.8887H17.8656H17.8424H17.8192H17.7959H17.7727H17.7494H17.7261H17.7028H17.6795H17.6562H17.6328H17.6094H17.5861H17.5626H17.5392H17.5158H17.4923H17.4688H17.4454H17.4218H17.3983H17.3748H17.3512H17.3277H17.3041H17.2805H17.2569H17.2333H17.2097H17.186H17.1624H17.1387H17.115H17.0913H17.0676H17.0439H17.0202H16.9965H16.9727H16.949H16.9252H16.9014H16.8777H16.8539H16.8301H16.8063H16.7824H16.7586H16.7348H16.711H16.6871H16.6633H16.6394H16.6155H16.5917H16.5678H16.5439H16.52H16.4961H16.4722H16.4483H16.4244H16.4005H16.3766H16.3527H16.3288H16.3049H16.2809H16.257H16.2331H16.2091H16.1852H16.1613H16.1373H16.1134H16.0895H16.0655H16.0416H16.0177H15.9937H15.9698H15.9459H15.9219H15.898H15.8741H15.8502H15.8262H15.8023H15.7784H15.7545H15.7306H15.7067H15.6828H15.6589H15.635H15.6111H15.5872H15.5634H15.5395H15.5156H15.4918H15.4679H15.4441H15.4202H15.3964H15.3726H15.3488H15.3249H15.3011H15.2774H15.2536H15.2298H15.206H15.1823H15.1585H15.1348H15.1111H15.0874H15.0637H15.04H15.0163H14.9926H14.969H14.9453H14.9217H14.8981H14.8745H14.8509H14.8273H14.8037H14.7802H14.7567H14.7331H14.7096H14.6861H14.6627H14.6392H14.6158H14.5923H14.5689H14.5455H14.5222H14.4988H14.4755H14.4521H14.4288H14.4055H14.3823H14.359H14.3358H14.3126H14.2894H14.2662H14.2431H14.2199H14.1968H14.1737H14.1507H14.1276H14.1046H14.0816H14.0586H14.0357H14.0127H13.9898H13.9669H13.9441H13.9212H13.8984H13.8756H13.8528H13.8301H13.8074H13.7847H13.762H13.7394H13.7168H13.6942H13.6716H13.6491H13.6266H13.6041H13.5817H13.5592H13.5369H13.5145H13.4922H13.4698H13.4476H13.4253H13.4031H13.3809H13.3588H13.3366H13.3145H13.2925H13.2704H13.2484H13.2265H13.2045H13.1826H13.1608H13.1389H13.1171H13.0954H13.0736H13.0519H13.0303H13.0086H12.987H12.9655H12.9439H12.9225H12.901H12.8796H12.8582H12.8369H12.8155H12.7943H12.773H12.7518H12.7307H12.7096H12.6885H12.6675H12.6465H12.6255H12.6046H12.5837H12.5629H12.5421H12.5213H12.5006H12.4799H12.4593H12.4387H12.4181H12.3976H12.3771H12.3567H12.3363H12.316H12.2957H12.2755H12.2553H12.2351H12.215H12.1949H12.1749H12.1549H12.135H12.1151H12.0952H12.0755H12.0557H12.036H12.0164H11.9968H11.9772H11.9577H11.9382H11.9188H11.8995H11.8801H11.8609H11.8417H11.8225H11.8034H11.7843H11.7653H11.7464H11.7274H11.7086H11.6898H11.671H11.6523H11.6337H11.6151H11.5965H11.5781H11.5596H11.5412H11.5229H11.5046H11.4864H11.4683H11.4502H11.4321H11.4141H11.3962H11.3783H11.3605H11.3427H11.325H11.3073H11.2898H11.2722H11.2547H11.2373H11.22H11.2027H11.1854H11.1682H11.1511H11.134H11.117H11.1001H11.0832H11.0664H11.0496H11.0329H11.0163H10.9997H10.9832H10.9668H10.9504H10.9341H10.9178H10.9016H10.8855H10.8694H10.8534H10.8375H10.8216H10.8058H10.7901H10.7744H10.7588H10.7433H10.7278H10.7124H10.697H10.6818H10.6666H10.6514H10.6364H10.6214H10.6064H10.5916H10.5768H10.562H10.5474H10.5328H10.5183H10.5039H10.4895H10.4752H10.461H10.4468H10.4327H10.4187H10.4048H10.3909H10.3771H10.3634H10.3498H10.3362H10.3227H10.3093H10.2959H10.2827H10.2695H10.2563H10.2433H10.2303H10.2174H10.2046H10.1919H10.1792H10.1666H10.1541H10.1417H10.1293H10.117H10.1049H10.0927H10.0807H10.0687H10.0569H10.0451H10.0333H10.0217H10.0101H9.99867H9.98728H9.97597H9.96474H9.95359H9.94252H9.93154H9.92063H9.90982H9.89908H9.88843H9.87786H9.86738H9.85698H9.84667H9.83644H9.8263H9.81624H9.80627H9.79638H9.78658H9.77687H9.76725H9.75771H9.74826H9.73889H9.72962H9.72043H9.71133H9.70232H9.6934H9.68456H9.67582H9.66717H9.65861H9.65013H9.64175H9.63346H9.62526H9.61715H9.60913H9.60121H9.59337H9.58563H9.57798H9.57043H9.56297H9.5556H9.54832H9.54114H9.53406H9.52706H9.52017H9.51337H9.50666H9.50005H9.49353H9.48711H9.48079H9.47456H9.46843H9.4624H9.45647H9.45063H9.44489H9.43925H9.43371H9.42826H9.42292H9.41767H9.41253H9.40748H9.40254H9.39769H9.39295H9.3883H9.38376H9.37932H9.37498H9.37074H9.36661H9.36257H9.35864H9.35481H9.35109H9.34747H9.34395H9.34054H9.33873C8.00968 15.4973 7.10531 14.9729 6.5041 14.3523C5.89512 13.7237 5.5703 12.9688 5.44861 12.1988C5.32629 11.4248 5.41078 10.6418 5.61684 9.98105C5.82652 9.30876 6.14398 8.81822 6.436 8.58232L6.46585 8.5582L6.49167 8.52982L12.9536 1.42591V4.27753ZM12.9536 0.727069V0.727086C12.953 0.720416 12.9536 0.719789 12.9536 0.727069Z" fill="black" stroke="black"/>
</svg>
