<svg width="11" height="11" viewBox="0 0 11 11" fill="none" xmlns="http://www.w3.org/2000/svg">
<path d="M4.52246 2.12012C5.10251 1.13455 6.52835 1.13455 7.1084 2.12012L10.1748 7.33008C10.7633 8.33001 10.0421 9.5908 8.88184 9.59082H2.74902C1.58875 9.59082 0.867544 8.33003 1.45605 7.33008L4.52246 2.12012ZM5.81543 7.32227C5.76416 7.32227 5.7317 7.33447 5.69336 7.37109L5.65527 7.42383C5.64749 7.44289 5.64453 7.46493 5.64453 7.49316C5.64456 7.54503 5.65706 7.5747 5.69238 7.61035C5.73115 7.64772 5.76372 7.66016 5.81543 7.66016C5.86785 7.66014 5.89845 7.64745 5.93457 7.61133L5.9375 7.6084C5.97484 7.57167 5.9863 7.54251 5.98633 7.49316C5.98633 7.43942 5.97351 7.40945 5.9375 7.37402L5.93359 7.37109V7.37012C5.89771 7.3344 5.86759 7.32228 5.81543 7.32227ZM5.81055 4.1377C5.80944 4.1382 5.80809 4.13914 5.80664 4.14062C5.80517 4.14215 5.80417 4.14341 5.80371 4.14453C5.8034 4.14531 5.80267 4.14666 5.80273 4.14941L5.81445 4.65234L5.82812 4.14941C5.82819 4.14667 5.82746 4.14531 5.82715 4.14453C5.82671 4.14343 5.82565 4.14214 5.82422 4.14062C5.82283 4.13921 5.8214 4.13821 5.82031 4.1377C5.81955 4.13737 5.81813 4.13673 5.81543 4.13672C5.81267 4.13672 5.81132 4.13736 5.81055 4.1377Z" stroke="#FF0000"/>
</svg>
